<svg width="65" height="64" viewBox="0 0 65 64" fill="none" xmlns="http://www.w3.org/2000/svg">
<path d="M58.8909 5.60457C61.5331 8.192 62.7857 11.9131 63.54 16.512C64.2943 21.1109 64.5 26.5417 64.5 32C64.5 37.4583 64.2669 42.9074 63.54 47.4834C62.8131 52.0594 61.5331 55.808 58.8909 58.3909C56.2486 60.9737 52.5823 62.2857 47.9834 63.04C43.3846 63.7943 37.9537 64 32.5 64C27.0463 64 21.5926 63.7669 17.0166 63.04C12.4406 62.3131 8.69657 61.0331 6.10914 58.3909C3.52171 55.7486 2.21429 52.0823 1.46 47.4834C0.705714 42.8846 0.5 37.4491 0.5 32C0.5 26.5509 0.733143 21.0926 1.46 16.5166C2.18686 11.9406 3.46686 8.19657 6.10914 5.60914C8.75143 3.02171 12.4177 1.71429 17.0166 0.964571C21.6154 0.214857 27.0463 0 32.5 0C37.9537 0 43.4074 0.237714 47.9834 0.964571C52.5594 1.69143 56.3034 2.96686 58.8909 5.60457Z" fill="url(#paint0_linear_416_81579)"/>
<path d="M17.041 48C16.9877 48.0001 16.9355 47.9856 16.8899 47.9582C16.8443 47.9308 16.807 47.8915 16.7821 47.8444C16.7571 47.7974 16.7455 47.7445 16.7484 47.6913C16.7514 47.6382 16.7687 47.5869 16.7987 47.5429C19.1121 44.2238 21.1501 40.7211 22.8924 37.0697C25.8164 30.8934 27.8746 24.3433 29.009 17.6046C29.0875 17.1549 29.3223 16.7475 29.6719 16.4539C30.0214 16.1604 30.4634 15.9996 30.9198 16H47.5781C47.6833 15.9997 47.7872 16.0241 47.8812 16.0713C47.9753 16.1184 48.057 16.187 48.1197 16.2715C48.1824 16.356 48.2244 16.4541 48.2423 16.5578C48.2602 16.6615 48.2535 16.7679 48.2227 16.8686C47.2239 20.2637 45.8774 23.5466 44.2044 26.6651C38.1152 38.016 29.1187 44.4937 23.633 47.6937C23.3093 47.8858 22.9397 47.9869 22.5632 47.9863L17.041 48Z" fill="white"/>
<defs>
<linearGradient id="paint0_linear_416_81579" x1="32.5" y1="63.9954" x2="32.5" y2="-0.00457001" gradientUnits="userSpaceOnUse">
<stop stop-color="#CC2334"/>
<stop offset="1" stop-color="#E63C54"/>
</linearGradient>
</defs>
</svg>
