<svg width="48" height="48" viewBox="0 0 48 48" fill="none" xmlns="http://www.w3.org/2000/svg">
<g clip-path="url(#clip0_5554_36792)">
<path d="M43.7913 4.2087C45.7725 6.14668 46.7148 8.93809 47.2787 12.3899C47.8247 15.8214 47.9898 19.9107 48 24.0025C47.9898 28.0919 47.8247 32.1812 47.2787 35.6127C46.7148 39.0619 45.7725 41.8559 43.7938 43.7938C41.8559 45.775 39.0645 46.7173 35.6127 47.2787C32.1812 47.8247 28.0919 47.9898 24 48C19.9107 47.9898 15.8214 47.8247 12.3899 47.2787C8.94063 46.7148 6.14668 45.7725 4.2087 43.7938C2.22754 41.8559 1.28522 39.0645 0.723886 35.6127C0.175257 32.1786 0.0101598 28.0893 0 24C0.0101598 19.9107 0.175257 15.8214 0.721346 12.3899C1.28522 8.94063 2.22754 6.14668 4.20616 4.2087C6.14414 2.22754 8.93555 1.28522 12.3873 0.723886C15.8188 0.175257 19.9107 0.0101598 24 0C28.0893 0.0101598 32.1786 0.175257 35.6101 0.721346C39.0594 1.28522 41.8533 2.22754 43.7913 4.20616V4.2087Z" fill="#D8EDDD"/>
<path d="M35.8106 12.3746C35.8106 12.4 35.8081 12.4254 35.803 12.4483C34.6372 18.0819 30.7739 24.6019 24.805 30.1695C22.3997 32.4123 19.8648 34.302 17.3223 35.8108C17.2969 35.8285 17.2715 35.8438 17.2436 35.859C17.1496 35.9073 17.0429 35.9479 16.9286 35.9733C16.8397 35.9911 16.7508 36.0012 16.667 36.0012H12.3745C12.3415 36.0012 12.311 35.9936 12.283 35.9758C12.2246 35.9454 12.1865 35.8819 12.1865 35.8133V35.765C12.2018 35.7041 12.2246 35.6355 12.2576 35.5644C12.2907 35.4933 12.3262 35.4298 12.3643 35.3764C12.3719 35.3637 12.3796 35.3536 12.3872 35.3434C14.1042 32.8923 15.8187 29.8774 17.3401 26.512C19.5321 21.6632 20.9138 16.9948 21.3786 13.35C21.3786 13.3195 21.3862 13.289 21.3888 13.2611C21.5056 12.5473 22.1254 12.0038 22.8696 12.0038H35.4347C35.6404 12.0038 35.8081 12.1714 35.8081 12.3772L35.8106 12.3746Z" fill="#00B262"/>
<path d="M27.8403 27.0581C27.7413 27.1724 27.6372 27.2892 27.533 27.4035C27.9216 26.3316 28.1324 25.1785 28.1324 23.9771C28.1324 19.9234 25.7322 16.4335 22.2753 14.846C22.2525 14.8384 22.2321 14.8282 22.2093 14.8181C21.714 14.5768 21.3711 14.0713 21.3711 13.4846C21.3711 13.4389 21.3711 13.3957 21.3787 13.35C21.3787 13.3195 21.3838 13.2865 21.3889 13.2585C21.3965 13.2153 21.4041 13.1747 21.4143 13.1315C21.4143 13.1239 21.4168 13.1188 21.4194 13.1137C21.5895 12.4788 22.1661 12.0114 22.8544 12.0038H23.6799C26.2503 13.8783 28.1451 16.7205 28.6887 20.2104C29.0773 22.5268 28.7471 24.9144 27.8378 27.0606L27.8403 27.0581Z" fill="#78C583"/>
<path d="M29.6746 20.4771C29.6416 22.6081 29.1286 24.696 28.2345 26.606C28.204 26.6441 28.171 26.6822 28.1354 26.7203C30.1369 21.8563 29.2174 15.9382 25.123 12.0013H27.4268C28.9177 14.4396 29.761 17.3352 29.6721 20.4771H29.6746Z" fill="#78C583"/>
<path d="M28.6554 26.1107C30.6061 21.6404 30.4969 16.3903 28.2363 12.0013H29.5546C30.5807 15.0086 30.8499 18.3385 30.1311 21.7598C29.834 23.2761 29.3285 24.7366 28.6554 26.1107Z" fill="#78C583"/>
<path d="M29.9508 23.5809C30.1438 23.0069 30.314 22.4227 30.4461 21.8283C31.2487 18.4045 31.0811 15.0517 30.1591 11.9987H31.0506C31.7364 15.7223 31.4494 19.6999 29.9482 23.5809H29.9508Z" fill="#78C583"/>
<path d="M30.6064 22.6259C31.8485 19.0623 32.1076 15.4353 31.5564 12.0013H32.2066C32.4682 15.5242 31.9704 19.1487 30.6064 22.6259Z" fill="#78C583"/>
<path d="M33.1311 12.0013C33.093 15.2753 32.4809 18.5671 31.249 21.7039C32.3844 18.5163 32.8187 15.2219 32.6257 12.0013H33.1311Z" fill="#78C583"/>
<path d="M31.7061 21.2137C32.8363 18.2241 33.4154 15.1076 33.4764 11.9987H33.9133C33.6567 15.1406 32.9252 18.2546 31.7061 21.2137Z" fill="#78C583"/>
<path d="M35.8135 12.3747C35.8135 12.4001 35.8109 12.4255 35.8059 12.4483C35.1429 15.6512 33.6088 19.1411 31.3076 22.5802C32.9052 19.2224 33.8526 15.6334 34.1651 12.0013H35.4401C35.6459 12.0013 35.8135 12.1689 35.8135 12.3747Z" fill="#78C583"/>
</g>
<defs>
<clipPath id="clip0_5554_36792">
<rect width="48" height="48" fill="white"/>
</clipPath>
</defs>
</svg>
