<svg width="111" height="26" viewBox="0 0 111 26" fill="none" xmlns="http://www.w3.org/2000/svg">
<path fill-rule="evenodd" clip-rule="evenodd" d="M4.96875 2.84337L7.55672 3.29566C7.44391 2.70568 10.0944 3.28557 10.8995 2.5105C9.90502 2.76012 8.54045 2.32853 4.96875 2.84337Z" fill="#033620"/>
<path fill-rule="evenodd" clip-rule="evenodd" d="M1.4668 6.84162L4.05477 7.29391C3.94195 6.70393 6.40409 6.9841 7.20922 6.20898C5.41027 6.37145 3.0642 6.11814 1.4668 6.84162Z" fill="#033620"/>
<path fill-rule="evenodd" clip-rule="evenodd" d="M0.0180664 12.4659L2.60604 12.9182C2.49323 12.3282 3.55127 12.992 4.3564 12.217C2.55745 12.3794 2.09753 11.3507 0.0180664 12.4659Z" fill="#033620"/>
<path fill-rule="evenodd" clip-rule="evenodd" d="M1.45068 18.2688L4.03865 18.7211C3.92584 18.1311 5.32424 18.4592 6.12937 17.6841C4.33043 17.8465 3.21406 17.1775 1.45068 18.2688Z" fill="#033620"/>
<path fill-rule="evenodd" clip-rule="evenodd" d="M15.9615 23.3045C13.7406 22.5515 10.3824 22.0333 7.80566 21.9963C9.82379 23.4406 14.9633 24.5389 15.9615 23.3045Z" fill="#033620"/>
<path fill-rule="evenodd" clip-rule="evenodd" d="M9.19043 1.01033C9.21168 1.20454 13.9432 0.75198 15.7414 1.17021C14.738 0.77596 11.4339 -0.124359 9.19043 1.01033Z" fill="#033620"/>
<path fill-rule="evenodd" clip-rule="evenodd" d="M43.9058 18.4708C38.9626 19.5119 35.6417 19.2592 33.6446 17.7001C29.541 14.4966 30.9474 7.38921 34.8024 6.0462C37.6989 5.03711 40.88 5.52289 43.8765 6.0462C44.791 6.20586 44.6665 8.00809 43.8904 8.32838C43.786 8.37143 43.3691 8.4848 43.1588 8.44504C39.5406 7.75878 36.3623 7.84676 35.1506 9.33914C33.822 10.9755 33.664 13.2284 35.1335 14.8501C36.4662 16.3208 38.9478 16.8118 43.3932 15.8263C43.7289 15.7519 44.208 15.9947 44.3935 16.4354C44.6442 17.0309 44.696 17.8324 44.5205 18.0556C44.3373 18.2888 44.1148 18.4268 43.9058 18.4708ZM60.2695 8.30029H50.1993V10.8233H57.6198C57.9062 10.8426 58.147 11.059 58.1496 11.3343V12.843C58.1285 13.1697 57.8306 13.3393 57.5889 13.3463H50.1993V16.1413H60.2254C60.4875 16.159 60.8012 16.4094 60.7997 16.7069V18.3045C60.7755 18.5649 60.4531 18.7583 60.214 18.7549H48.9924C48.4345 18.7156 47.5561 17.8964 47.5493 17.3134V6.99514C47.5743 6.43751 48.1173 5.70869 48.9485 5.68659H60.296C60.5876 5.70097 60.7979 5.92709 60.7997 6.17351L60.7988 7.75878C60.7957 8.05053 60.542 8.29323 60.2695 8.30029ZM76.9793 18.7549H75.3136C75.0867 18.7452 74.8329 18.5212 74.823 18.2676V13.5275H66.6889V18.2587C66.6858 18.5256 66.4302 18.7559 66.186 18.7549H64.5145C64.2633 18.7462 64.0389 18.488 64.0389 18.2736V6.17351C64.0411 5.96996 64.2544 5.69045 64.502 5.68659H66.2406C66.4834 5.6951 66.6871 5.92547 66.6889 6.16155V10.8233H74.823V6.16452C74.8314 5.96444 75.0216 5.69475 75.2714 5.68659H77.001C77.2609 5.69255 77.4825 5.95256 77.4731 6.17052V18.2618C77.4672 18.4918 77.2424 18.7546 76.9793 18.7549ZM94.1464 7.82822C94.1455 8.05785 93.8505 8.29858 93.562 8.30029H88.8463V18.2471C88.8411 18.5288 88.6168 18.7499 88.3676 18.7549H86.6657C86.4073 18.745 86.1981 18.4542 86.1962 18.2014V8.30029H81.3769C81.1242 8.29196 80.9015 8.09901 80.896 7.82287V6.17052C80.8996 5.93949 81.1146 5.69764 81.3815 5.68659H93.5924C93.8454 5.69282 94.1506 5.95129 94.1464 6.26123V7.82822ZM110.82 6.39463C110.818 5.92257 110.57 5.70426 110.164 5.68659H108.17L100.219 14.7473V6.21248C100.22 5.95019 99.9769 5.70514 99.6995 5.68659H98.0825C97.7833 5.70088 97.5748 5.93643 97.5694 6.2305V18.2081C97.5849 18.4981 97.8055 18.7447 98.1247 18.7549H100.219L108.17 9.69423V18.1529C108.182 18.4742 108.39 18.7474 108.736 18.7549H110.327C110.583 18.7441 110.805 18.5077 110.82 18.1828V6.39463Z" fill="#02764B"/>
<path fill-rule="evenodd" clip-rule="evenodd" d="M32.7112 25.1137C32.2023 25.0671 31.8286 24.9162 31.5902 24.6608C31.3526 24.4055 31.2334 24.0843 31.2334 23.6973C31.2334 23.2788 31.3553 22.9445 31.5982 22.6935C31.841 22.4416 32.2121 22.2942 32.7112 22.2495V21.823H33.1205V22.2495C33.6294 22.2959 34.004 22.4469 34.2425 22.7022C34.4819 22.9576 34.601 23.2778 34.601 23.664C34.601 24.0834 34.4791 24.4187 34.2344 24.6696C33.9907 24.9215 33.6188 25.0689 33.1205 25.1137V25.5428H32.7112V25.1137ZM33.1205 24.7899C33.7967 24.7039 34.1348 24.3292 34.1348 23.6657C34.1348 23.0252 33.7967 22.661 33.1205 22.5733V24.7899ZM32.7112 22.5733C32.0368 22.6558 31.6996 23.0304 31.6996 23.6973C31.6996 24.3379 32.0368 24.7021 32.7112 24.7899V22.5733ZM36.8663 25.1443V25.4375H36.4206V21.9283H36.8663V24.1958C36.8663 24.3449 36.8601 24.4976 36.8477 24.653C36.9714 24.4336 37.1173 24.2107 37.2863 23.9825L38.5631 22.2705V21.9283H39.0088V25.4375H38.5631V23.3937C38.5631 23.2665 38.5694 23.0558 38.5818 22.761C38.4803 22.9515 38.3335 23.1753 38.1413 23.4323L36.8663 25.1443ZM43.5466 25.4375H43.1008V23.7666H41.4512V25.4375H41.0055V21.9283H41.4512V23.3806H43.1008V21.9283H43.5466V25.4375ZM47.9384 25.4375H47.4828L47.1224 24.4117H45.8065L45.488 25.4375H45.1161L46.2701 21.9283H46.7791L47.9384 25.4375ZM47.0291 24.0826L46.4819 22.396L45.9294 24.0826H47.0291ZM52.0517 25.4375H51.6059V23.7666H49.9563V25.4375H49.5106V21.9283H49.9563V23.3806H51.6059V21.9283H52.0517V25.4375ZM56.1801 24.2572L56.5876 24.3476C56.3927 25.1207 55.9533 25.5068 55.2681 25.5068C54.8179 25.5068 54.4647 25.3278 54.2084 24.9698C53.9522 24.6117 53.8241 24.1712 53.8241 23.6482C53.8241 23.1085 53.9575 22.675 54.2253 22.3477C54.4932 22.0195 54.8517 21.8564 55.3019 21.8564C55.9692 21.8564 56.3981 22.2328 56.5876 22.9848L56.1677 23.0673C56.0146 22.5083 55.7255 22.2293 55.2992 22.2293C54.9852 22.2293 54.7414 22.3591 54.5679 22.6189C54.3953 22.8778 54.309 23.2428 54.309 23.7123C54.309 24.1422 54.3979 24.4871 54.575 24.7468C54.752 25.0066 54.987 25.1364 55.2788 25.1364C55.7326 25.1364 56.0324 24.8434 56.1801 24.2572ZM59.4757 25.5068C59.0184 25.5068 58.6624 25.3313 58.4071 24.9812C58.1518 24.631 58.0237 24.201 58.0237 23.6921C58.0237 23.1603 58.1571 22.7215 58.4249 22.3758C58.6928 22.0292 59.0468 21.8564 59.4891 21.8564C59.9286 21.8564 60.281 22.0266 60.547 22.3661C60.813 22.7066 60.9455 23.1358 60.9455 23.6535C60.9455 24.1502 60.8165 24.5836 60.5585 24.953C60.3005 25.3225 59.9393 25.5068 59.4757 25.5068ZM59.4864 25.1496C59.7969 25.1496 60.0407 25.0101 60.216 24.7302C60.3912 24.4511 60.4793 24.0913 60.4793 23.6509C60.4793 23.198 60.3886 22.8461 60.2071 22.5943C60.0256 22.3424 59.7845 22.2161 59.4838 22.2161C59.1795 22.2161 58.9374 22.3521 58.7586 22.625C58.5797 22.897 58.4898 23.2542 58.4898 23.6947C58.4898 24.1247 58.5806 24.4748 58.7613 24.7442C58.9419 25.0145 59.1838 25.1496 59.4864 25.1496ZM62.7233 25.4375V21.9283H64.1308C64.485 21.9283 64.7483 22.0143 64.9191 22.1854C65.0909 22.3565 65.1763 22.5557 65.1763 22.7821C65.1763 23.1796 64.9654 23.4437 64.5454 23.5736C64.7955 23.6368 64.9815 23.75 65.1034 23.9132C65.2252 24.0756 65.2857 24.2598 65.2857 24.466C65.2857 24.7416 65.1914 24.9724 65.0028 25.1584C64.8142 25.3445 64.5232 25.4375 64.1308 25.4375H62.7233ZM63.153 23.4323H63.928C64.2492 23.4323 64.4636 23.3718 64.5713 23.2507C64.679 23.1305 64.7332 22.9883 64.7332 22.8251C64.7332 22.6645 64.6754 22.5338 64.5597 22.4345C64.444 22.3354 64.2714 22.2854 64.0419 22.2854H63.153V23.4323ZM63.153 25.0522H64.1077C64.3399 25.0522 64.5205 24.9961 64.6469 24.8846C64.7741 24.7732 64.8373 24.6284 64.8373 24.4503C64.8373 24.3247 64.8088 24.2089 64.751 24.1019C64.694 23.9948 64.6131 23.9123 64.509 23.8535C64.4049 23.7956 64.2492 23.7666 64.0419 23.7666H63.153V25.0522ZM69.4168 25.4375H68.9613L68.6009 24.4117H67.285L66.9664 25.4375H66.5946L67.7486 21.9283H68.2575L69.4168 25.4375ZM68.5075 24.0826L67.9603 22.396L67.4078 24.0826H68.5075ZM72.8993 23.9185H71.8805L71.1874 25.4375H70.7203L71.4552 23.8123C71.2212 23.7386 71.0522 23.6166 70.949 23.4446C70.8448 23.2735 70.7932 23.0945 70.7932 22.9076C70.7932 22.6356 70.8937 22.4039 71.0932 22.2134C71.2933 22.023 71.5665 21.9283 71.9144 21.9283H73.3166V25.4375H72.8993V23.9185ZM72.8993 22.3135H71.9144C71.7097 22.3135 71.5451 22.367 71.4232 22.4732C71.3004 22.5794 71.239 22.7224 71.239 22.9023C71.239 23.0805 71.2986 23.2349 71.4161 23.3657C71.5344 23.4955 71.7186 23.5605 71.9695 23.5605H72.8993V22.3135ZM79.6899 25.4375H79.2023L78.1391 23.5016L77.3231 24.502V25.4375H76.8774V21.9283H77.3231V23.9641L78.9318 21.9283H79.4141L78.4496 23.1568L79.6899 25.4375ZM82.4357 25.5068C81.9784 25.5068 81.6225 25.3313 81.3671 24.9812C81.1118 24.631 80.9837 24.201 80.9837 23.6921C80.9837 23.1603 81.1171 22.7215 81.3849 22.3758C81.6527 22.0292 82.0068 21.8564 82.449 21.8564C82.8885 21.8564 83.2409 22.0266 83.5069 22.3661C83.773 22.7066 83.9055 23.1358 83.9055 23.6535C83.9055 24.1502 83.7765 24.5836 83.5185 24.953C83.2605 25.3225 82.8993 25.5068 82.4357 25.5068ZM82.4463 25.1496C82.7569 25.1496 83.0007 25.0101 83.176 24.7302C83.3512 24.4511 83.4393 24.0913 83.4393 23.6509C83.4393 23.198 83.3486 22.8461 83.167 22.5943C82.9855 22.3424 82.7445 22.2161 82.4437 22.2161C82.1394 22.2161 81.8974 22.3521 81.7185 22.625C81.5397 22.897 81.4498 23.2542 81.4498 23.6947C81.4498 24.1247 81.5406 24.4748 81.7212 24.7442C81.9019 25.0145 82.1438 25.1496 82.4463 25.1496ZM89.1186 25.4375H88.6861V22.3732L87.5286 25.4375H87.2261L86.0614 22.3732V25.4375H85.6833V21.9283H86.3452L87.4164 24.7355L88.4673 21.9283H89.1186V25.4375ZM91.1152 25.4375V21.9283H93.5833V25.4375H93.1402V22.3135H91.5609V25.4375H91.1152ZM97.9778 25.4375H97.5222L97.1619 24.4117H95.846L95.5274 25.4375H95.1555L96.3096 21.9283H96.8185L97.9778 25.4375ZM97.0685 24.0826L96.5213 22.396L95.9688 24.0826H97.0685ZM102.091 25.4375H101.645V23.7666H99.9957V25.4375H99.55V21.9283H99.9957V23.3806H101.645V21.9283H102.091V25.4375ZM104.533 25.1443V25.4375H104.088V21.9283H104.533V24.1958C104.533 24.3449 104.527 24.4976 104.515 24.653C104.638 24.4336 104.784 24.2107 104.953 23.9825L106.23 22.2705V21.9283H106.676V25.4375H106.23V23.3937C106.23 23.2665 106.236 23.0558 106.249 22.761C106.147 22.9515 106.001 23.1753 105.808 23.4323L104.533 25.1443ZM110.583 23.9185H109.564L108.871 25.4375H108.404L109.139 23.8123C108.905 23.7386 108.736 23.6166 108.633 23.4446C108.528 23.2735 108.477 23.0945 108.477 22.9076C108.477 22.6356 108.577 22.4039 108.777 22.2134C108.977 22.023 109.25 21.9283 109.598 21.9283H111V25.4375H110.583V23.9185ZM110.583 22.3135H109.598C109.393 22.3135 109.229 22.367 109.107 22.4732C108.984 22.5794 108.923 22.7224 108.923 22.9023C108.923 23.0805 108.982 23.2349 109.1 23.3657C109.218 23.4955 109.402 23.5605 109.653 23.5605H110.583V22.3135Z" fill="#45535C"/>
<path fill-rule="evenodd" clip-rule="evenodd" d="M23.4561 16.1112L20.8682 15.6589C20.981 16.2489 20.312 17.0718 19.5068 17.8469C21.2349 17.5509 22.8494 17.1915 23.4561 16.1112Z" fill="#033620"/>
<path fill-rule="evenodd" clip-rule="evenodd" d="M21.5819 9.79712C21.4113 10.4228 21.8273 11.1389 21.2529 11.9608L22.3654 11.9595L23.2349 11.7813L23.8065 10.5287L21.5819 9.79712Z" fill="#033620"/>
<path fill-rule="evenodd" clip-rule="evenodd" d="M14.4264 1.65116L16.1409 1.43114L15.8925 1.30835L17.6071 1.95152C17.9268 3.75668 9.69522 3.34349 8.17285 3.10141L14.4264 1.65116Z" fill="#033620"/>
<path fill-rule="evenodd" clip-rule="evenodd" d="M16.4609 4.70786C18.1755 4.48783 19.9597 4.84082 21.6743 5.48398C21.1078 6.25152 20.1169 6.59023 18.8696 6.67015L16.4609 4.70786Z" fill="#033620"/>
<path fill-rule="evenodd" clip-rule="evenodd" d="M9.78392 0.761137C11.1235 0.6351 13.6503 0.485915 15.1195 0.965603C15.6235 1.11786 17.159 1.65455 17.6072 1.95204C15.1101 1.50058 10.1247 1.58961 7.12598 1.59215C8.27355 1.05539 9.3632 0.856005 9.78392 0.761137Z" fill="#02764B"/>
<path fill-rule="evenodd" clip-rule="evenodd" d="M20.1742 21.3404C19.8203 20.8004 18.7258 20.5603 17.6562 20.7801C16.5549 21.0064 15.8986 21.0991 14.7762 21.7503C12.6981 22.956 11.8851 21.3077 10.6021 21.2089C11.7519 22.5848 17.1183 22.7055 20.1742 21.3404Z" fill="#033620"/>
<path fill-rule="evenodd" clip-rule="evenodd" d="M15.9814 23.3175C13.7969 23.7125 9.81001 23.2757 7.18652 23.2734C8.77095 24.6947 14.6924 24.9856 15.9814 23.3175Z" fill="#02764B"/>
<path d="M11.6026 2.45728C17.3094 2.45728 21.9356 7.05206 21.9356 12.7202C21.9356 18.3882 17.3094 22.9831 11.6026 22.9831C5.89586 22.9831 1.26953 18.3882 1.26953 12.7202C1.26953 7.05206 5.89586 2.45728 11.6026 2.45728Z" fill="url(#paint0_linear_5210_175622)"/>
<path fill-rule="evenodd" clip-rule="evenodd" d="M0.0174309 12.4597C8.43188 12.6285 20.2167 12.4258 23.8867 14.063C23.8162 14.7454 23.6566 15.4276 23.4565 16.1099C16.9543 14.9824 8.27973 15.0822 0.309908 15.2147C0.0450742 14.2682 -0.0251968 13.2946 0.0174309 12.4597Z" fill="#02764B"/>
<path fill-rule="evenodd" clip-rule="evenodd" d="M1.46388 6.83472C9.87837 7.0035 19.3615 6.4008 23.0437 7.90615C23.2917 8.53861 23.6272 9.38554 23.8065 10.5286C18.5929 8.82554 8.35849 9.45905 0.388672 9.59154C0.757608 8.22831 1.1677 7.42869 1.46388 6.83472Z" fill="#02764B"/>
<path fill-rule="evenodd" clip-rule="evenodd" d="M4.96873 2.84393C9.26994 2.67848 15.8093 2.4002 19.8233 3.45532C20.3851 3.99971 21.1851 4.77781 21.6745 5.4841C17.7754 4.21048 8.87256 4.6409 2.91211 4.73998C3.53379 4.03198 4.28011 3.29477 4.96873 2.84393Z" fill="#02764B"/>
<path fill-rule="evenodd" clip-rule="evenodd" d="M1.44922 18.2651C7.74224 18.3913 18.8866 18.5396 21.6404 19.6654C21.2639 20.2835 20.5544 21.0537 20.1746 21.3406C15.372 20.485 8.69392 20.6068 3.03644 20.5301C2.25941 19.803 1.79753 19.0556 1.44922 18.2651Z" fill="#02764B"/>
<defs>
<linearGradient id="paint0_linear_5210_175622" x1="-205.093" y1="-178.159" x2="-219.077" y2="-193.363" gradientUnits="userSpaceOnUse">
<stop stop-color="#D8B94B"/>
<stop offset="0.1" stop-color="#E5CC5B"/>
<stop offset="0.2" stop-color="#FFF27A"/>
<stop offset="0.3" stop-color="#FDFF9E"/>
<stop offset="0.41" stop-color="#D8B94B"/>
<stop offset="0.51" stop-color="#FFD473"/>
<stop offset="0.62" stop-color="#FDFF9E"/>
<stop offset="0.7" stop-color="#FFF8BF"/>
<stop offset="0.88" stop-color="#D8B94B"/>
<stop offset="1" stop-color="#D8B94B"/>
</linearGradient>
</defs>
</svg>
