<svg width="144" height="40" viewBox="0 0 144 40" fill="none" xmlns="http://www.w3.org/2000/svg">
<rect x="0.5" y="0.5" width="39" height="39" rx="19.5" stroke="#333333"/>
<path d="M16.4444 12C13.9902 12 12 13.9902 12 16.4444V23.5556C12 26.0098 13.9902 28 16.4444 28H23.5556C26.0098 28 28 26.0098 28 23.5556V16.4444C28 13.9902 26.0098 12 23.5556 12H16.4444ZM25.3333 13.7778C25.824 13.7778 26.2222 14.176 26.2222 14.6667C26.2222 15.1573 25.824 15.5556 25.3333 15.5556C24.8427 15.5556 24.4444 15.1573 24.4444 14.6667C24.4444 14.176 24.8427 13.7778 25.3333 13.7778ZM20 15.5556C22.4542 15.5556 24.4444 17.5458 24.4444 20C24.4444 22.4542 22.4542 24.4444 20 24.4444C17.5458 24.4444 15.5556 22.4542 15.5556 20C15.5556 17.5458 17.5458 15.5556 20 15.5556ZM20 17.3333C19.2928 17.3333 18.6145 17.6143 18.1144 18.1144C17.6143 18.6145 17.3333 19.2928 17.3333 20C17.3333 20.7072 17.6143 21.3855 18.1144 21.8856C18.6145 22.3857 19.2928 22.6667 20 22.6667C20.7072 22.6667 21.3855 22.3857 21.8856 21.8856C22.3857 21.3855 22.6667 20.7072 22.6667 20C22.6667 19.2928 22.3857 18.6145 21.8856 18.1144C21.3855 17.6143 20.7072 17.3333 20 17.3333Z" fill="#333333"/>
<rect x="52.5" y="0.5" width="39" height="39" rx="19.5" stroke="#333333"/>
<path d="M69.7197 15.0877C69.7197 14.9879 69.7335 14.7725 69.7612 14.4428C69.791 14.1125 69.9157 13.7668 70.1394 13.4039C70.361 13.0424 70.7205 12.7175 71.2205 12.4301C71.7185 12.1441 72.4382 12 73.3773 12H76.0231V14.8833H74.0859C73.894 14.8833 73.7153 14.9554 73.554 15.0974C73.394 15.2393 73.3115 15.3744 73.3115 15.4998V17.2936H76.0224C75.994 17.6448 75.9629 17.9862 75.9268 18.3159L75.8195 19.1872C75.7765 19.4816 75.7329 19.7545 75.69 20.0059H73.2921V28H69.7197V20.0052H67.9771V17.2936H69.7197V15.0877Z" fill="#333333"/>
<rect x="104.5" y="0.5" width="39" height="39" rx="19.5" stroke="#333333"/>
<g clip-path="url(#clip0_5439_173193)">
<path d="M131.637 14.962C131.386 15.0735 131.128 15.1676 130.864 15.2439C131.176 14.8904 131.415 14.4744 131.56 14.0192C131.593 13.9171 131.559 13.8054 131.475 13.7387C131.391 13.6719 131.275 13.6639 131.183 13.7186C130.622 14.0512 130.017 14.2902 129.382 14.43C128.743 13.8055 127.876 13.4502 126.978 13.4502C125.084 13.4502 123.543 14.991 123.543 16.8849C123.543 17.034 123.553 17.1824 123.572 17.3286C121.221 17.1223 119.037 15.9671 117.536 14.1267C117.483 14.0611 117.4 14.0257 117.316 14.0325C117.232 14.0391 117.156 14.0867 117.113 14.1598C116.809 14.682 116.648 15.2792 116.648 15.8868C116.648 16.7145 116.943 17.4997 117.465 18.1133C117.307 18.0583 117.153 17.9896 117.006 17.908C116.927 17.8641 116.83 17.8647 116.752 17.9097C116.674 17.9547 116.624 18.0373 116.622 18.1277C116.622 18.1429 116.622 18.1582 116.622 18.1736C116.622 19.409 117.287 20.5212 118.303 21.1273C118.216 21.1186 118.129 21.106 118.042 21.0894C117.953 21.0723 117.861 21.1037 117.8 21.1718C117.74 21.24 117.72 21.3349 117.748 21.4216C118.124 22.5964 119.093 23.4604 120.264 23.7238C119.293 24.3322 118.182 24.6509 117.016 24.6509C116.773 24.6509 116.528 24.6366 116.288 24.6082C116.169 24.5941 116.056 24.6643 116.015 24.7775C115.975 24.8906 116.018 25.0168 116.119 25.0817C117.617 26.0422 119.349 26.5498 121.128 26.5498C124.625 26.5498 126.812 24.9008 128.032 23.5174C129.552 21.7925 130.424 19.5093 130.424 17.2533C130.424 17.1591 130.423 17.0639 130.42 16.9691C131.02 16.5171 131.536 15.9701 131.957 15.3414C132.02 15.2459 132.013 15.1197 131.939 15.0318C131.866 14.9439 131.743 14.9154 131.637 14.962Z" fill="#333333"/>
</g>
<defs>
<clipPath id="clip0_5439_173193">
<rect width="16" height="16" fill="white" transform="translate(116 12)"/>
</clipPath>
</defs>
</svg>
