<svg width="32" height="32" viewBox="0 0 32 32" fill="none" xmlns="http://www.w3.org/2000/svg">
<rect width="32" height="32" rx="16" fill="#10A060"/>
<path d="M15.63 22.162C12.804 22.162 11.184 20.56 11.13 17.77H13.398C13.452 19.408 14.208 20.146 15.63 20.146C17.106 20.146 17.862 19.408 17.862 18.256C17.862 17.23 17.142 16.474 15.756 16.474H14.1V14.566H15.756C16.908 14.566 17.592 13.9 17.592 12.946C17.592 11.938 16.908 11.254 15.63 11.254C14.46 11.254 13.776 11.938 13.668 13.27H11.4C11.454 10.768 13.002 9.238 15.63 9.238C18.402 9.238 19.86 10.696 19.86 12.802C19.86 13.954 19.356 14.926 18.312 15.502C19.536 16.096 20.13 17.176 20.13 18.418C20.13 20.632 18.6 22.162 15.63 22.162Z" fill="#FAFAFF"/>
</svg>
